<?xml version="1.0"?>
<svg xmlns="http://www.w3.org/2000/svg" viewBox="0 0 20 20">
    <g id="delete">
        <circle cx="10" cy="10" r="10"/>
        <path d="M5,5L15,15" stroke-linecap="round"/>
        <path d="M15,5L5,15" stroke-linecap="round"/>
    </g>
    <g id="sideButtonIn">
        <path d="M0,0 h15 a10,10 0 0 1 10,10 v60 a10,10 0 0 1 -10,10 h-15z" fill="#999"/>
        <polyline points="25,20 10,40 25,60" class="arrowIn"></polyline>
    </g>
    <g id="sideButtonOut">
        <path d="M0,0 h15 a10,10 0 0 1 10,10 v60 a10,10 0 0 1 -10,10 h-15z" fill="#999"/>
        <polyline points="0,20 15,40 0,60" class="arrowOut"></polyline>
    </g>
    <g id="zoomIn">
        <path d="M40,42c4.2,-4.2 6.3,-9.2 6.3,-15.2c0,-6 -2.1,-11 -6.3,-15.2c-4.2,-4.2 -9.3,-6.3 -15.2,-6.3s-11,2.1 -15.2,6.3c-4.2,4.2 -6.3,9.2 -6.3,15.2c0,5.9 2.1,11 6.3,15.2s9.3,6.3 15.2,6.3s11,-2.1 15.2,-6.3"/>
        <line x1="36" y1="26.5" x2="13" y2="26.5"/>
        <line x1="25" y1="15" x2="25" y2="38"/>
        <line x1="54" y1="56" x2="40" y2="42"/>
    </g>
    <g id="zoomOut">
        <path d="M40,42c4.2,-4.2 6.3,-9.2 6.3,-15.2c0,-6 -2.1,-11 -6.3,-15.2c-4.2,-4.2 -9.3,-6.3 -15.2,-6.3s-11,2.1 -15.2,6.3c-4.2,4.2 -6.3,9.2 -6.3,15.2c0,5.9 2.1,11 6.3,15.2s9.3,6.3 15.2,6.3s11,-2.1 15.2,-6.3"/>
        <line x1="36" y1="26.5" x2="13" y2="26.5"/>
        <line x1="54" y1="56" x2="40" y2="42"/>
    </g>
    <g id="gear">
        <path d="M18.6,8.3l-0.5,-1.2c0,0 1.2,-2.8 1.1,-2.9l-1.6,-1.6c-0.1,-0.1 -2.9,1.1 -2.9,1.1l-1.3,-0.5c0,0 -1.1,-2.9 -1.3,-2.9l-2.3,0c-0.1,0 -1.2,2.9 -1.2,2.9l-1.3,0.5c0,0 -2.9,-1.2 -3.0,-1.1l-1.6,1.6c-0.1,0.1 1.2,2.9 1.2,2.9l-0.5,1.2c0,0 -2.9,1.1 -2.9,1.2l0,2.3c0,0.1 2.9,1.2 2.9,1.2l0.5,1.2c0,0 -1.2,2.8 -1.1,2.9l1.6,1.6c0.1,0.1 2.9,-1.1 2.9,-1.1l1.3,0.5c0,0 1.1,2.8 1.3,2.8l2.3,0c0.1,0 1.2,-2.9 1.2,-2.9l1.3,-0.5c0,0 2.9,1.2 3.0,1.1l1.6,-1.6c0.1,-0.1 -1.2,-2.9 -1.2,-2.9l0.5,-1.2c0,0 2.9,-1.1 2.9,-1.2l0,-2.3c0.0,-0.1 -2.9,-1.2 -2.9,-1.2zm-4.3,2.4c0,1.8 -1.5,3.3 -3.4,3.3c-1.9,0 -3.4,-1.5 -3.4,-3.3s1.5,-3.3 3.4,-3.3c1.9,0.0 3.4,1.5 3.4,3.3z"/>
    </g>
    <g id="menu">
        <rect width="100%" height="100%" fill="#fff" stroke="#000" stroke-width="4"/>
        <line x1="25%" y1="25%" x2="75%" y2="25%" stroke-linecap="round" stroke-width="2"/>
        <line x1="25%" y1="50%" x2="75%" y2="50%" stroke-linecap="round" stroke-width="2"/>
        <line x1="25%" y1="75%" x2="75%" y2="75%" stroke-linecap="round" stroke-width="2"/>
    </g>
</svg>